<mxfile host="app.diagrams.net" modified="2023-10-23T07:25:18.636Z" agent="Mozilla/5.0 (Macintosh; Intel Mac OS X 10_15_7) AppleWebKit/537.36 (KHTML, like Gecko) Chrome/119.0.0.0 Safari/537.36 Edg/119.0.0.0" version="21.6.9" etag="KNiJMhXd6-lEeQ6XSSC1" type="github">
  <diagram name="第 1 页" id="LCrmmQoWbCShWl46kARk">
    <mxGraphModel>
      <root>
        <mxCell id="0" />
        <mxCell id="1" parent="0" />
      </root>
    </mxGraphModel>
  </diagram>
</mxfile>
